<svg width="28" height="21" viewBox="0 0 28 21" fill="none" xmlns="http://www.w3.org/2000/svg">
<path d="M0 0.6875C0 0.505164 0.0982835 0.330295 0.273229 0.201364C0.448175 0.0724328 0.685452 0 0.932863 0H3.73145C3.93954 4.23658e-05 4.14163 0.0513572 4.30559 0.145784C4.46955 0.240211 4.58597 0.372328 4.63633 0.521125L5.39195 2.75H27.053C27.19 2.75009 27.3253 2.77242 27.4492 2.81538C27.5732 2.85835 27.6827 2.9209 27.7702 2.99861C27.8576 3.07631 27.9208 3.16724 27.9552 3.26496C27.9895 3.36268 27.9943 3.46478 27.9691 3.564L25.1705 14.564C25.1305 14.7215 25.017 14.8638 24.8498 14.9663C24.6825 15.0687 24.4719 15.1249 24.2544 15.125H7.4629C7.24542 15.1249 7.03484 15.0687 6.86757 14.9663C6.7003 14.8638 6.58685 14.7215 6.54683 14.564L3.75011 3.58463L3.00382 1.375H0.932863C0.685452 1.375 0.448175 1.30257 0.273229 1.17364C0.0982835 1.0447 0 0.869836 0 0.6875ZM9.32863 15.125C8.33898 15.125 7.38988 15.4147 6.69009 15.9305C5.99031 16.4462 5.59718 17.1457 5.59718 17.875C5.59718 18.6043 5.99031 19.3038 6.69009 19.8195C7.38988 20.3353 8.33898 20.625 9.32863 20.625C10.3183 20.625 11.2674 20.3353 11.9672 19.8195C12.6669 19.3038 13.0601 18.6043 13.0601 17.875C13.0601 17.1457 12.6669 16.4462 11.9672 15.9305C11.2674 15.4147 10.3183 15.125 9.32863 15.125ZM22.3887 15.125C21.3991 15.125 20.45 15.4147 19.7502 15.9305C19.0504 16.4462 18.6573 17.1457 18.6573 17.875C18.6573 18.6043 19.0504 19.3038 19.7502 19.8195C20.45 20.3353 21.3991 20.625 22.3887 20.625C23.3783 20.625 24.3275 20.3353 25.0272 19.8195C25.727 19.3038 26.1202 18.6043 26.1202 17.875C26.1202 17.1457 25.727 16.4462 25.0272 15.9305C24.3275 15.4147 23.3783 15.125 22.3887 15.125ZM9.32863 16.5C9.82345 16.5 10.298 16.6449 10.6479 16.9027C10.9978 17.1606 11.1944 17.5103 11.1944 17.875C11.1944 18.2397 10.9978 18.5894 10.6479 18.8473C10.298 19.1051 9.82345 19.25 9.32863 19.25C8.83381 19.25 8.35925 19.1051 8.00936 18.8473C7.65947 18.5894 7.4629 18.2397 7.4629 17.875C7.4629 17.5103 7.65947 17.1606 8.00936 16.9027C8.35925 16.6449 8.83381 16.5 9.32863 16.5ZM22.3887 16.5C22.8835 16.5 23.3581 16.6449 23.708 16.9027C24.0579 17.1606 24.2544 17.5103 24.2544 17.875C24.2544 18.2397 24.0579 18.5894 23.708 18.8473C23.3581 19.1051 22.8835 19.25 22.3887 19.25C21.8939 19.25 21.4193 19.1051 21.0694 18.8473C20.7195 18.5894 20.523 18.2397 20.523 17.875C20.523 17.5103 20.7195 17.1606 21.0694 16.9027C21.4193 16.6449 21.8939 16.5 22.3887 16.5Z" fill="#2B9E3E"/>
</svg>
