<svg width="24" height="23" viewBox="0 0 24 23" fill="none" xmlns="http://www.w3.org/2000/svg">
<g clip-path="url(#clip0)">
<path fill-rule="evenodd" clip-rule="evenodd" d="M0.578735 11.5642C0.578735 17.2816 4.73119 22.0359 10.1621 23V14.6941H7.28707V11.5H10.1621V8.94413C10.1621 6.06913 12.0145 4.47254 14.6346 4.47254C15.4645 4.47254 16.3596 4.6 17.1895 4.72746V7.66667H15.7204C14.3145 7.66667 13.9954 8.36912 13.9954 9.26421V11.5H17.0621L16.5513 14.6941H13.9954V23C19.4263 22.0359 23.5787 17.2826 23.5787 11.5642C23.5787 5.20375 18.4037 0 12.0787 0C5.75374 0 0.578735 5.20375 0.578735 11.5642Z" fill="#0000FF"/>
</g>
<defs>
<clipPath id="clip0">
<rect width="23" height="23" fill="white" transform="translate(0.578735)"/>
</clipPath>
</defs>
</svg>
