<svg width="185" height="39" viewBox="0 0 185 39" fill="none" xmlns="http://www.w3.org/2000/svg">
<path d="M38.6427 32.328C40.1547 32.328 41.2707 32.064 41.9907 31.536C42.7347 31.008 43.1067 30.24 43.1067 29.232C43.1067 28.608 42.9747 28.08 42.7107 27.648C42.4467 27.216 42.0867 26.844 41.6307 26.532C41.1987 26.22 40.6827 25.956 40.0827 25.74C39.5067 25.5 38.9067 25.272 38.2827 25.056C37.1307 24.672 36.0867 24.288 35.1507 23.904C34.2387 23.52 33.4467 23.076 32.7747 22.572C32.1267 22.044 31.6227 21.408 31.2627 20.664C30.9027 19.896 30.7227 18.948 30.7227 17.82C30.7227 16.26 31.0347 15 31.6587 14.04C32.3067 13.056 33.1107 12.3 34.0707 11.772C35.0307 11.22 36.0747 10.86 37.2027 10.692C38.3547 10.5 39.4227 10.404 40.4067 10.404C41.6547 10.404 42.8307 10.5 43.9347 10.692C45.0627 10.884 46.0467 11.076 46.8867 11.268V15.444C45.7347 15.108 44.5467 14.832 43.3227 14.616C42.0987 14.4 40.9827 14.292 39.9747 14.292C38.2467 14.292 36.9867 14.604 36.1947 15.228C35.4027 15.828 35.0067 16.56 35.0067 17.424C35.0067 18.072 35.1867 18.612 35.5467 19.044C35.9307 19.476 36.3867 19.848 36.9147 20.16C37.4667 20.472 38.0427 20.724 38.6427 20.916C39.2667 21.084 39.8307 21.24 40.3347 21.384C41.1987 21.624 42.0627 21.924 42.9267 22.284C43.7907 22.62 44.5707 23.076 45.2667 23.652C45.9867 24.228 46.5627 24.948 46.9947 25.812C47.4267 26.652 47.6427 27.696 47.6427 28.944C47.6427 30.192 47.4147 31.284 46.9587 32.22C46.5267 33.156 45.9027 33.936 45.0867 34.56C44.2947 35.184 43.3467 35.652 42.2427 35.964C41.1387 36.276 39.9267 36.432 38.6067 36.432C37.4547 36.432 36.1587 36.312 34.7187 36.072C33.3027 35.832 31.9107 35.46 30.5427 34.956L30.3987 30.528C30.8307 30.744 31.3707 30.96 32.0187 31.176C32.6667 31.368 33.3627 31.56 34.1067 31.752C34.8747 31.92 35.6427 32.064 36.4107 32.184C37.2027 32.28 37.9467 32.328 38.6427 32.328ZM58.9361 36.432C57.4241 36.432 56.2001 35.916 55.2641 34.884C54.3521 33.852 53.8961 32.508 53.8961 30.852C53.8961 29.124 54.4001 27.744 55.4081 26.712C56.4161 25.68 57.7601 25.164 59.4401 25.164C60.1361 25.164 60.8321 25.26 61.5281 25.452C62.2241 25.644 62.8481 25.92 63.4001 26.28V24.264C63.4001 23.136 63.1841 22.344 62.7521 21.888C62.3201 21.432 61.5761 21.204 60.5201 21.204C59.8001 21.204 59.0321 21.3 58.2161 21.492C57.4241 21.66 56.7881 21.876 56.3081 22.14L55.1921 18.684C55.5521 18.54 55.9841 18.396 56.4881 18.252C56.9921 18.108 57.5321 17.988 58.1081 17.892C58.6841 17.796 59.2721 17.724 59.8721 17.676C60.4721 17.604 61.0241 17.568 61.5281 17.568C65.7521 17.568 67.8641 19.632 67.8641 23.76C67.8641 24.12 67.8401 24.648 67.7921 25.344C67.7681 26.04 67.7321 26.772 67.6841 27.54C67.6601 28.284 67.6241 28.98 67.5761 29.628C67.5521 30.276 67.5401 30.732 67.5401 30.996C67.5401 31.548 67.6241 31.944 67.7921 32.184C67.9601 32.424 68.2721 32.544 68.7281 32.544C69.0401 32.544 69.4001 32.496 69.8081 32.4L69.2321 35.856C68.8481 35.976 68.4881 36.072 68.1521 36.144C67.8401 36.216 67.5161 36.252 67.1801 36.252C66.2921 36.252 65.5481 36.012 64.9481 35.532C64.3481 35.028 63.9881 34.32 63.8681 33.408C63.3881 34.344 62.7161 35.088 61.8521 35.64C60.9881 36.168 60.0161 36.432 58.9361 36.432ZM60.6641 33.12C61.4321 33.12 62.0801 32.844 62.6081 32.292C63.1601 31.74 63.4361 31.044 63.4361 30.204C63.4361 29.484 63.2201 28.908 62.7881 28.476C62.3561 28.044 61.7561 27.828 60.9881 27.828C60.1961 27.828 59.5721 28.068 59.1161 28.548C58.6601 29.028 58.4321 29.688 58.4321 30.528C58.4321 31.32 58.6241 31.956 59.0081 32.436C59.4161 32.892 59.9681 33.12 60.6641 33.12ZM95.3882 20.52C94.2602 20.52 93.3962 21.12 92.7962 22.32C92.1962 23.496 91.8962 25.116 91.8962 27.18C91.8962 29.196 92.1362 30.768 92.6162 31.896C93.1202 33 93.9842 33.552 95.2082 33.552C96.3362 33.552 97.2122 32.94 97.8362 31.716C98.4602 30.468 98.7722 28.812 98.7722 26.748C98.7722 25.788 98.7242 24.924 98.6282 24.156C98.5322 23.388 98.3522 22.74 98.0882 22.212C97.8482 21.66 97.5002 21.24 97.0442 20.952C96.6122 20.664 96.0602 20.52 95.3882 20.52ZM87.1802 27.288C87.1802 25.8 87.3842 24.456 87.7922 23.256C88.2002 22.056 88.7642 21.036 89.4842 20.196C90.2282 19.356 91.1282 18.708 92.1842 18.252C93.2402 17.796 94.4162 17.568 95.7122 17.568C98.1602 17.568 100.056 18.348 101.4 19.908C102.768 21.468 103.452 23.652 103.452 26.46C103.452 27.972 103.248 29.34 102.84 30.564C102.432 31.788 101.856 32.844 101.112 33.732C100.368 34.596 99.4682 35.268 98.4122 35.748C97.3802 36.204 96.2282 36.432 94.9562 36.432C93.7562 36.432 92.6762 36.216 91.7162 35.784C90.7562 35.352 89.9402 34.74 89.2682 33.948C88.5962 33.156 88.0802 32.196 87.7202 31.068C87.3602 29.94 87.1802 28.68 87.1802 27.288ZM113.752 8.28C113.68 9.12 113.62 9.984 113.572 10.872C113.548 11.76 113.524 12.744 113.5 13.824C113.5 14.88 113.488 16.068 113.464 17.388C113.464 18.708 113.464 20.22 113.464 21.924V24.912C114.76 23.472 115.912 22.176 116.92 21.024C117.928 19.872 118.936 18.72 119.944 17.568L124.84 18C124.288 18.504 123.76 18.984 123.256 19.44C122.752 19.872 122.2 20.364 121.6 20.916C121.024 21.444 120.376 22.056 119.656 22.752C118.96 23.424 118.144 24.252 117.208 25.236C119.224 25.332 120.82 25.86 121.996 26.82C123.196 27.78 123.796 29.316 123.796 31.428C123.796 32.052 123.748 32.772 123.652 33.588C123.58 34.38 123.52 35.184 123.472 36L118.864 36.468C118.96 35.508 119.044 34.62 119.116 33.804C119.212 32.988 119.26 32.244 119.26 31.572C119.26 30.276 119.008 29.28 118.504 28.584C118 27.888 117.04 27.54 115.624 27.54C114.928 27.54 114.208 27.612 113.464 27.756C113.464 29.292 113.464 30.72 113.464 32.04C113.488 33.36 113.524 34.68 113.572 36H108.712C108.736 34.752 108.76 33.66 108.784 32.724C108.832 31.764 108.868 30.756 108.892 29.7C108.916 28.644 108.94 27.432 108.964 26.064C108.988 24.672 109 22.932 109 20.844C109 18.972 108.988 17.016 108.964 14.976C108.94 12.912 108.892 10.8 108.82 8.64L113.752 8.28ZM133.268 36.432C131.756 36.432 130.532 35.916 129.596 34.884C128.684 33.852 128.228 32.508 128.228 30.852C128.228 29.124 128.732 27.744 129.74 26.712C130.748 25.68 132.092 25.164 133.772 25.164C134.468 25.164 135.164 25.26 135.86 25.452C136.556 25.644 137.18 25.92 137.732 26.28V24.264C137.732 23.136 137.516 22.344 137.084 21.888C136.652 21.432 135.908 21.204 134.852 21.204C134.132 21.204 133.364 21.3 132.548 21.492C131.756 21.66 131.12 21.876 130.64 22.14L129.524 18.684C129.884 18.54 130.316 18.396 130.82 18.252C131.324 18.108 131.864 17.988 132.44 17.892C133.016 17.796 133.604 17.724 134.204 17.676C134.804 17.604 135.356 17.568 135.86 17.568C140.084 17.568 142.196 19.632 142.196 23.76C142.196 24.12 142.172 24.648 142.124 25.344C142.1 26.04 142.064 26.772 142.016 27.54C141.992 28.284 141.956 28.98 141.908 29.628C141.884 30.276 141.872 30.732 141.872 30.996C141.872 31.548 141.956 31.944 142.124 32.184C142.292 32.424 142.604 32.544 143.06 32.544C143.372 32.544 143.732 32.496 144.14 32.4L143.564 35.856C143.18 35.976 142.82 36.072 142.484 36.144C142.172 36.216 141.848 36.252 141.512 36.252C140.624 36.252 139.88 36.012 139.28 35.532C138.68 35.028 138.32 34.32 138.2 33.408C137.72 34.344 137.048 35.088 136.184 35.64C135.32 36.168 134.348 36.432 133.268 36.432ZM134.996 33.12C135.764 33.12 136.412 32.844 136.94 32.292C137.492 31.74 137.768 31.044 137.768 30.204C137.768 29.484 137.552 28.908 137.12 28.476C136.688 28.044 136.088 27.828 135.32 27.828C134.528 27.828 133.904 28.068 133.448 28.548C132.992 29.028 132.764 29.688 132.764 30.528C132.764 31.32 132.956 31.956 133.34 32.436C133.748 32.892 134.3 33.12 134.996 33.12Z" fill="#43A047"/>
<path d="M75.7578 14.9062L79.2031 14.0273L81.8047 13.3242L81.0664 26.2969L80.8027 31.3945C81.6699 32.0156 82.6484 32.6426 83.7383 33.2754V33.3984C82.3438 34.6992 81.1719 35.9824 80.2227 37.248C78.6055 36.9082 77.3984 36.2109 76.6016 35.1562C75.8047 34.0898 75.4062 32.6602 75.4062 30.8672C75.4062 30.1523 75.4414 28.9805 75.5117 27.3516C75.582 25.7812 75.6641 21.6328 75.7578 14.9062Z" fill="url(#paint0_linear)"/>
<defs>
<linearGradient id="paint0_linear" x1="104.5" y1="5" x2="104.5" y2="38.2308" gradientUnits="userSpaceOnUse">
<stop offset="0.413797" stop-color="#43A047"/>
<stop offset="0.736479" stop-color="#E0DA43"/>
</linearGradient>
</defs>
</svg>
