<svg width="20" height="18" viewBox="0 0 20 18" fill="none" xmlns="http://www.w3.org/2000/svg">
<path fill-rule="evenodd" clip-rule="evenodd" d="M18.3943 17.269C19.0691 17.269 19.5466 16.8223 19.5466 16.2506C19.5466 15.9826 19.4428 15.7236 19.2144 15.536L14.3252 11.3197C15.3528 10.1585 15.9653 8.72031 15.9653 7.15707C15.9653 3.37852 12.3736 0.287781 7.98264 0.287781C3.60205 0.287781 0 3.36958 0 7.15707C0 10.9356 3.59167 14.0264 7.98264 14.0264C9.71619 14.0264 11.3148 13.544 12.6227 12.74L17.5431 16.9742C17.7715 17.1707 18.0725 17.269 18.3943 17.269ZM7.9826 12.5435C4.55703 12.5435 1.72314 10.1049 1.72314 7.15707C1.72314 4.20926 4.55703 1.77061 7.9826 1.77061C11.4082 1.77061 14.2421 4.20926 14.2421 7.15707C14.2421 10.1049 11.4082 12.5435 7.9826 12.5435Z" fill="#43A047"/>
</svg>
