<svg width="26" height="24" viewBox="0 0 26 24" fill="none" xmlns="http://www.w3.org/2000/svg">
<path d="M24.5345 8.19486L17.0905 7.14911L13.7628 0.62806C13.672 0.449517 13.5224 0.304983 13.3377 0.217129C12.8745 -0.00392358 12.3116 0.180287 12.08 0.62806L8.7523 7.14911L1.30831 8.19486C1.10308 8.2232 0.915443 8.31672 0.771782 8.45842C0.598104 8.63097 0.502399 8.86312 0.505698 9.10384C0.508996 9.34457 0.611028 9.57418 0.789373 9.74222L6.1752 14.8179L4.90277 21.9851C4.87293 22.1519 4.89202 22.3233 4.95787 22.4801C5.02371 22.6369 5.13369 22.7727 5.27532 22.8721C5.41695 22.9715 5.58457 23.0306 5.75917 23.0427C5.93377 23.0547 6.10836 23.0192 6.26315 22.9402L12.9214 19.5564L19.5797 22.9402C19.7614 23.0337 19.9725 23.0649 20.1748 23.0309C20.685 22.9459 21.028 22.4782 20.94 21.9851L19.6676 14.8179L25.0534 9.74222C25.2 9.60336 25.2968 9.42198 25.3261 9.2236C25.4053 8.72765 25.0476 8.26854 24.5345 8.19486Z" fill="#43A047"/>
</svg>
