<svg width="26" height="20" viewBox="0 0 26 20" fill="none" xmlns="http://www.w3.org/2000/svg">
<g clip-path="url(#clip0)">
<path d="M25.0776 2.43542C24.1761 2.83513 23.2075 3.10528 22.1909 3.22681C23.2287 2.6048 24.0255 1.61982 24.4007 0.446234C23.4142 1.03167 22.3348 1.44415 21.2092 1.66585C20.2924 0.689105 18.9863 0.0786743 17.5406 0.0786743C14.7649 0.0786743 12.5145 2.32901 12.5145 5.10451C12.5145 5.49848 12.559 5.88202 12.6446 6.24997C8.46761 6.0403 4.76426 4.03944 2.28531 0.998674C1.85278 1.74097 1.60493 2.60442 1.60493 3.52537C1.60493 5.2691 2.4923 6.80738 3.84082 7.70872C3.04268 7.68373 2.26211 7.46816 1.56426 7.08001C1.56398 7.10107 1.56398 7.12212 1.56398 7.14327C1.56398 9.57839 3.29642 11.6098 5.59555 12.0715C4.85545 12.2728 4.07912 12.3022 3.32589 12.1576C3.96541 14.1544 5.82158 15.6074 8.02082 15.6481C6.30072 16.996 4.13354 17.7995 1.7789 17.7995C1.37316 17.7995 0.973162 17.7757 0.579956 17.7293C2.80417 19.1553 5.44599 19.9874 8.28426 19.9874C17.529 19.9874 22.5842 12.3289 22.5842 5.68738C22.5842 5.46939 22.5794 5.25265 22.5696 5.03714C23.5536 4.32584 24.4028 3.44481 25.0776 2.43542Z" fill="#55ACEE"/>
</g>
<defs>
<clipPath id="clip0">
<rect width="24.5" height="20" fill="white" transform="translate(0.578735)"/>
</clipPath>
</defs>
</svg>
