<svg width="16" height="16" viewBox="0 0 16 16" fill="none" xmlns="http://www.w3.org/2000/svg">
<path fill-rule="evenodd" clip-rule="evenodd" d="M15.8572 6.40309H8.16904C8.16904 7.20264 8.16904 8.80174 8.16414 9.60129H12.6192C12.4485 10.4008 11.8432 11.5202 10.988 12.0839C10.9872 12.0831 10.9864 12.0887 10.9847 12.0879C9.84767 12.8387 8.34711 13.009 7.23293 12.7851C5.4865 12.4381 4.10439 11.1716 3.54322 9.56291C3.54649 9.56051 3.54894 9.53813 3.55139 9.53653C3.20014 8.53869 3.20014 7.20264 3.55139 6.40309H3.55057C4.0031 4.93352 5.42687 3.59267 7.17575 3.22568C8.58237 2.92745 10.1695 3.25047 11.3368 4.34265C11.492 4.19074 13.4851 2.24463 13.6346 2.08632C9.64672 -1.52524 3.2614 -0.25476 0.872119 4.40901H0.871302C0.871302 4.40901 0.872119 4.40901 0.867218 4.41781C-0.314764 6.70852 -0.265753 9.4078 0.875387 11.589C0.872119 11.5914 0.869669 11.593 0.867218 11.5954C1.90135 13.6022 3.78337 15.1414 6.05095 15.7274C8.45984 16.3591 11.5255 15.9273 13.579 14.07C13.5799 14.0708 13.5807 14.0716 13.5815 14.0724C15.3214 12.5053 16.4045 9.83556 15.8572 6.40309Z" fill="#0D0D0D"/>
</svg>
