<svg width="26" height="25" viewBox="0 0 26 25" fill="none" xmlns="http://www.w3.org/2000/svg">
<path d="M13.0777 7.68439C11.8002 7.68439 10.5751 8.19186 9.67176 9.09516C8.76846 9.99846 8.26099 11.2236 8.26099 12.5011C8.26099 13.7785 8.76846 15.0036 9.67176 15.9069C10.5751 16.8102 11.8002 17.3177 13.0777 17.3177C14.3551 17.3177 15.5803 16.8102 16.4836 15.9069C17.3869 15.0036 17.8943 13.7785 17.8943 12.5011C17.8943 11.2236 17.3869 9.99846 16.4836 9.09516C15.5803 8.19186 14.3551 7.68439 13.0777 7.68439ZM13.0777 15.6292C12.2477 15.6292 11.4518 15.2995 10.865 14.7127C10.2782 14.1258 9.94849 13.3299 9.94849 12.5C9.94849 11.6701 10.2782 10.8742 10.865 10.2874C11.4518 9.70052 12.2477 9.37085 13.0777 9.37085C13.9076 9.37085 14.7035 9.70052 15.2903 10.2874C15.8771 10.8742 16.2068 11.6701 16.2068 12.5C16.2068 13.3299 15.8771 14.1258 15.2903 14.7127C14.7035 15.2995 13.9076 15.6292 13.0777 15.6292Z" fill="black"/>
<path d="M18.085 8.63023C18.7051 8.63023 19.2079 8.12749 19.2079 7.50732C19.2079 6.88715 18.7051 6.3844 18.085 6.3844C17.4648 6.3844 16.962 6.88715 16.962 7.50732C16.962 8.12749 17.4648 8.63023 18.085 8.63023Z" fill="black"/>
<path d="M21.9673 6.3656C21.7261 5.74288 21.3576 5.17736 20.8853 4.70525C20.413 4.23314 19.8474 3.86485 19.2246 3.62394C18.4957 3.35035 17.7258 3.20242 16.9475 3.18644C15.9444 3.14269 15.6266 3.13019 13.0829 3.13019C10.5391 3.13019 10.2131 3.13019 9.21831 3.18644C8.44059 3.2016 7.67118 3.34956 6.94331 3.62394C6.32033 3.86456 5.75452 4.23276 5.2822 4.7049C4.80988 5.17705 4.44147 5.74271 4.2006 6.3656C3.92696 7.09437 3.77937 7.86439 3.76414 8.64269C3.71935 9.64477 3.70581 9.96248 3.70581 12.5073C3.70581 15.051 3.70581 15.375 3.76414 16.3719C3.77977 17.151 3.92664 17.9198 4.2006 18.65C4.44214 19.2726 4.81091 19.8381 5.28335 20.3102C5.75579 20.7822 6.3215 21.1506 6.94435 21.3916C7.67085 21.6762 8.44057 21.8347 9.22039 21.8604C10.2235 21.9041 10.5412 21.9177 13.085 21.9177C15.6287 21.9177 15.9548 21.9177 16.9496 21.8604C17.7278 21.8446 18.4977 21.697 19.2266 21.4239C19.8493 21.1825 20.4148 20.8139 20.887 20.3416C21.3593 19.8694 21.7279 19.3039 21.9694 18.6812C22.2433 17.9521 22.3902 17.1833 22.4058 16.4041C22.4506 15.4021 22.4641 15.0844 22.4641 12.5396C22.4641 9.99477 22.4641 9.67185 22.4058 8.67498C22.3937 7.88568 22.2453 7.1044 21.9673 6.3656ZM20.6985 16.2948C20.6918 16.8951 20.5822 17.4898 20.3746 18.0531C20.2181 18.4582 19.9786 18.826 19.6715 19.133C19.3644 19.4399 18.9964 19.6792 18.5912 19.8354C18.0342 20.0421 17.4458 20.1517 16.8516 20.1594C15.8621 20.2052 15.5829 20.2166 13.0454 20.2166C10.5058 20.2166 10.2464 20.2166 9.2381 20.1594C8.64428 20.1521 8.05615 20.0425 7.49956 19.8354C7.09298 19.6802 6.72352 19.4413 6.41507 19.1343C6.10662 18.8273 5.86606 18.459 5.70894 18.0531C5.50419 17.4959 5.39468 16.9081 5.38498 16.3146C5.34019 15.325 5.32977 15.0458 5.32977 12.5083C5.32977 9.96977 5.32977 9.7104 5.38498 8.70102C5.39171 8.10104 5.50128 7.50667 5.70894 6.94373C6.02664 6.12185 6.67769 5.47498 7.49956 5.1604C8.05643 4.95429 8.64438 4.84473 9.2381 4.83644C10.2287 4.79165 10.5069 4.77915 13.0454 4.77915C15.5839 4.77915 15.8444 4.77915 16.8516 4.83644C17.4458 4.84359 18.0343 4.95318 18.5912 5.1604C18.9964 5.31693 19.3643 5.55644 19.6714 5.86355C19.9785 6.17067 20.218 6.5386 20.3746 6.94373C20.5793 7.50097 20.6888 8.08869 20.6985 8.68227C20.7433 9.6729 20.7548 9.95102 20.7548 12.4896C20.7548 15.0271 20.7548 15.3 20.71 16.2958H20.6985V16.2948Z" fill="black"/>
</svg>
