<svg width="25" height="25" viewBox="0 0 25 25" fill="none" xmlns="http://www.w3.org/2000/svg">
<path d="M22.1677 3.37952H2.31543V9.33519H3.30804V20.2539C3.30804 20.7805 3.5172 21.2854 3.8895 21.6577C4.2618 22.03 4.76675 22.2392 5.29327 22.2392H19.1899C19.7164 22.2392 20.2213 22.03 20.5936 21.6577C20.9659 21.2854 21.1751 20.7805 21.1751 20.2539V9.33519H22.1677V3.37952ZM4.30066 5.36474H20.1825V7.34997H4.30066V5.36474ZM19.1899 20.2539H5.29327V9.33519H19.1899V20.2539ZM9.26372 11.3204H15.2194C15.2194 11.8469 15.0102 12.3519 14.6379 12.7242C14.2656 13.0965 13.7607 13.3056 13.2342 13.3056H11.2489C10.7224 13.3056 10.2175 13.0965 9.84518 12.7242C9.47288 12.3519 9.26372 11.8469 9.26372 11.3204Z" fill="#43A047"/>
</svg>
