<svg width="21" height="20" viewBox="0 0 21 20" fill="none" xmlns="http://www.w3.org/2000/svg">
<g clip-path="url(#clip0)">
<path fill-rule="evenodd" clip-rule="evenodd" d="M13.5011 6.90903C13.5011 7.82523 13.1372 8.70391 12.4893 9.35176C11.8415 9.99961 10.9628 10.3636 10.0466 10.3636C9.13038 10.3636 8.25171 9.99961 7.60385 9.35176C6.956 8.70391 6.59204 7.82523 6.59204 6.90903C6.59204 5.99283 6.956 5.11415 7.60385 4.4663C8.25171 3.81844 9.13038 3.45448 10.0466 3.45448C10.9628 3.45448 11.8415 3.81844 12.4893 4.4663C13.1372 5.11415 13.5011 5.99283 13.5011 6.90903ZM11.7739 6.90903C11.7739 7.36713 11.5919 7.80647 11.268 8.13039C10.944 8.45432 10.5047 8.6363 10.0466 8.6363C9.58849 8.6363 9.14915 8.45432 8.82522 8.13039C8.50129 7.80647 8.31931 7.36713 8.31931 6.90903C8.31931 6.45093 8.50129 6.01159 8.82522 5.68766C9.14915 5.36374 9.58849 5.18176 10.0466 5.18176C10.5047 5.18176 10.944 5.36374 11.268 5.68766C11.5919 6.01159 11.7739 6.45093 11.7739 6.90903Z" fill="#43A047"/>
<path fill-rule="evenodd" clip-rule="evenodd" d="M10.5466 1.52588e-05C5.02384 1.52588e-05 0.54657 4.47729 0.54657 10C0.54657 15.5227 5.02384 20 10.5466 20C16.0693 20 20.5466 15.5227 20.5466 10C20.5466 4.47729 16.0693 1.52588e-05 10.5466 1.52588e-05ZM2.36475 10C2.36475 11.9 3.01293 13.6491 4.0993 15.0382C4.86223 14.0363 5.84648 13.2243 6.97515 12.6658C8.10381 12.1072 9.34634 11.8171 10.6057 11.8182C11.8487 11.817 13.0756 12.0996 14.1929 12.6444C15.3102 13.1891 16.2884 13.9818 17.0529 14.9618C17.8406 13.9287 18.371 12.7229 18.6001 11.4442C18.8293 10.1654 18.7506 8.8505 18.3707 7.60818C17.9907 6.36586 17.3204 5.23188 16.4152 4.30005C15.51 3.36822 14.3959 2.66534 13.1651 2.24957C11.9343 1.8338 10.6222 1.71708 9.33735 1.90908C8.0525 2.10108 6.83183 2.59628 5.77636 3.3537C4.72089 4.11112 3.86094 5.10899 3.26769 6.26474C2.67443 7.42049 2.36492 8.7009 2.36475 10ZM10.5466 18.1818C8.66834 18.1847 6.84681 17.5385 5.39021 16.3527C5.97651 15.5134 6.75688 14.8281 7.66493 14.3552C8.57298 13.8822 9.58183 13.6357 10.6057 13.6364C11.6167 13.6356 12.6134 13.876 13.5129 14.3377C14.4124 14.7994 15.1887 15.469 15.7775 16.2909C14.3096 17.5152 12.458 18.1845 10.5466 18.1818Z" fill="#43A047"/>
</g>
<defs>
<clipPath id="clip0">
<rect width="20" height="20" fill="white" transform="translate(0.492188)"/>
</clipPath>
</defs>
</svg>
