<svg width="19" height="20" viewBox="0 0 19 20" fill="none" xmlns="http://www.w3.org/2000/svg">
<path d="M14.106 15.9684H8.06059V11.7142H7.05301V15.9684H4.03028V11.7142H3.02271V15.9684C3.02271 16.2505 3.12886 16.521 3.31782 16.7205C3.50677 16.9199 3.76306 17.032 4.03028 17.032H14.106C14.3733 17.032 14.6295 16.9199 14.8185 16.7205C15.0075 16.521 15.1136 16.2505 15.1136 15.9684V11.7142H14.106V15.9684Z" fill="white"/>
<path d="M17.023 7.07182L14.9675 2.73253C14.8841 2.55533 14.7555 2.40621 14.5962 2.30194C14.4369 2.19766 14.2532 2.14236 14.0658 2.14225H4.07061C3.88316 2.14236 3.69945 2.19766 3.54014 2.30194C3.38083 2.40621 3.25224 2.55533 3.16883 2.73253L1.11337 7.07182C1.04319 7.22045 1.00696 7.38435 1.00758 7.55042V9.18829C1.00712 9.43679 1.08911 9.67762 1.23932 9.86896C1.46132 10.1376 1.7355 10.3526 2.04323 10.4994C2.35096 10.6462 2.68503 10.7214 3.02273 10.7198C3.57376 10.7207 4.10798 10.5196 4.53409 10.1508C4.9602 10.5198 5.49431 10.7215 6.04546 10.7215C6.5966 10.7215 7.13071 10.5198 7.55682 10.1508C7.98293 10.5198 8.51704 10.7215 9.06818 10.7215C9.61933 10.7215 10.1534 10.5198 10.5795 10.1508C11.0057 10.5198 11.5398 10.7215 12.0909 10.7215C12.6421 10.7215 13.1762 10.5198 13.6023 10.1508C14.0779 10.5631 14.6865 10.7646 15.3 10.713C15.9135 10.6614 16.4842 10.3608 16.892 9.87428C17.044 9.68367 17.1278 9.44277 17.1288 9.19361V7.55042C17.1294 7.38435 17.0932 7.22045 17.023 7.07182ZM15.1136 9.65625C14.8985 9.65572 14.6865 9.6009 14.4955 9.49638C14.3044 9.39185 14.1398 9.24064 14.0154 9.05534L13.6023 8.45975L13.1942 9.05534C13.0674 9.23779 12.9017 9.38616 12.7104 9.48842C12.5192 9.59069 12.3078 9.64398 12.0934 9.64398C11.879 9.64398 11.6677 9.59069 11.4764 9.48842C11.2852 9.38616 11.1195 9.23779 10.9927 9.05534L10.5795 8.45975L10.1715 9.05534C10.0447 9.23779 9.87893 9.38616 9.68769 9.48842C9.49645 9.59069 9.28508 9.64398 9.0707 9.64398C8.85632 9.64398 8.64496 9.59069 8.45372 9.48842C8.26248 9.38616 8.09674 9.23779 7.96992 9.05534L7.55682 8.45975L7.14875 9.05534C7.02194 9.23779 6.8562 9.38616 6.66496 9.48842C6.47372 9.59069 6.26235 9.64398 6.04797 9.64398C5.83359 9.64398 5.62223 9.59069 5.43099 9.48842C5.23975 9.38616 5.07401 9.23779 4.9472 9.05534L4.53409 8.45975L4.12099 9.05534C3.99654 9.24064 3.83193 9.39185 3.64089 9.49638C3.44985 9.6009 3.23791 9.65572 3.02273 9.65625C2.83287 9.65869 2.64472 9.61818 2.47092 9.53747C2.29713 9.45675 2.14172 9.33769 2.01515 9.18829V7.55042L4.07061 3.20581H14.0658L16.1212 7.5451V9.17233C15.9954 9.32383 15.8405 9.44534 15.6668 9.52877C15.4931 9.6122 15.3045 9.65566 15.1136 9.65625Z" fill="white"/>
</svg>
